{{- warn("pdoc's default favicon has been removed in pdoc 10. Please use the new --favicon option and adjust your custom pdoc template.") -}}
<svg xmlns="http://www.w3.org/2000/svg" width="64" height="64" viewBox="44.5 2.5 15 15"><path d="M49.351 21.041c-.233-.721-.546-2.408-.772-4.076-.042-.09-.067-.187-.046-.288-.166-1.347-.277-2.625-.241-3.351-1.378-1.008-2.271-2.586-2.271-4.362 0-.976.272-1.935.788-2.774.057-.094.122-.18.184-.268-.033-.167-.052-.339-.052-.516 0-1.477 1.202-2.679 2.679-2.679.791 0 1.496.352 1.987.9a6.3 6.3 0 0 1 1.001.029c.492-.564 1.207-.929 2.012-.929 1.477 0 2.679 1.202 2.679 2.679a2.65 2.65 0 0 1-.269 1.148c.383.747.595 1.572.595 2.41 0 2.311-1.507 4.29-3.635 5.107.037.699.147 2.27.423 3.294l.137.461c.156 2.136-4.612 5.166-5.199 3.215zm.127-4.919a4.78 4.78 0 0 0 .775-.584c-.172-.115-.505-.254-.88-.378zm.331 2.302l.828-.502c-.202-.143-.576-.328-.984-.49zm.45 2.157l.701-.403c-.214-.115-.536-.249-.891-.376l.19.779zM49.13 4.141c0 .152.123.276.276.276s.275-.124.275-.276-.123-.276-.276-.276-.275.124-.275.276zm.735-.389a1.15 1.15 0 0 1 .314.783 1.16 1.16 0 0 1-1.162 1.162c-.457 0-.842-.27-1.032-.653-.026.117-.042.238-.042.362a1.68 1.68 0 0 0 1.679 1.679 1.68 1.68 0 0 0 1.679-1.679c0-.843-.626-1.535-1.436-1.654zm3.076 1.654a1.68 1.68 0 0 0 1.679 1.679 1.68 1.68 0 0 0 1.679-1.679c0-.037-.009-.072-.011-.109-.21.3-.541.508-.935.508a1.16 1.16 0 0 1-1.162-1.162 1.14 1.14 0 0 1 .474-.912c-.015 0-.03-.005-.045-.005-.926.001-1.679.754-1.679 1.68zm1.861-1.265c0 .152.123.276.276.276s.275-.124.275-.276-.123-.276-.276-.276-.275.124-.275.276zm1.823 4.823c0-.52-.103-1.035-.288-1.52-.466.394-1.06.64-1.717.64-1.144 0-2.116-.725-2.499-1.738-.383 1.012-1.355 1.738-2.499 1.738-.867 0-1.631-.421-2.121-1.062-.307.605-.478 1.267-.478 1.942 0 2.486 2.153 4.51 4.801 4.51s4.801-2.023 4.801-4.51zm-3.032 9.156l-.146-.492c-.276-1.02-.395-2.457-.444-3.268a6.11 6.11 0 0 1-1.18.115 6.01 6.01 0 0 1-2.536-.562l.006.175c.802.215 1.848.612 2.021 1.25.079.295-.021.601-.274.837l-.598.501c.667.304 1.243.698 1.311 1.179.02.144.022.507-.393.787l-.564.365c1.285.521 1.361.96 1.381 1.126.018.142.011.496-.427.746l-.854.489c.064-1.19 1.985-2.585 2.697-3.248zM49.34 9.925c0-.667 1-.667 1 0 0 .653.818 1.205 1.787 1.205s1.787-.552 1.787-1.205c0-.667 1-.667 1 0 0 1.216-1.25 2.205-2.787 2.205s-2.787-.989-2.787-2.205zm-.887-7.633c-.093.077-.205.114-.317.114a.5.5 0 0 1-.318-.886L49.183.397a.5.5 0 0 1 .703.068.5.5 0 0 1-.069.703zm7.661-.065c-.086 0-.173-.022-.253-.068l-1.523-.893c-.575-.337-.069-1.2.506-.863l1.523.892a.5.5 0 0 1 .179.685c-.094.158-.261.247-.432.247z" fill="#3bb300"/></svg>
