<svg xmlns="http://www.w3.org/2000/svg" width="200" height="100" viewBox="-1 0 60 30">
    <g transform="translate(58, 0), scale(-1,1)" fill="#3bb300">
        <path d="M29.621,21.293C29.61,21.02 29.407,20.818 29.11,20.812c-0.273,0.006 -0.491,0.229 -0.489,0.503 0.002,0.37 -0.011,0.849 -0.044,1.393 -0.09749,0.551116 -0.695074,1.215124 -1.566,1.704 -0.577,0.428 -1.306,0.486 -2.193,0.182 -1.426,-0.617 -2.467,-1.654 -3.304,-2.487 l -0.173,-0.172c-0.107,-0.106 -0.232,-0.207 -0.365,-0.306 -0.072,-0.101 -0.172,-0.169 -0.286,-0.196 -1.718,-1.06 -4.931,-1.47 -7.353,0.191 l -0.219,0.15C11.411,22.961 9.705,23.905 8.79,22.804 8.77,22.777 8.3,22.119 8.649,21.041 8.882,20.32 9.195,18.633 9.421,16.965 9.463,16.875 9.488,16.778 9.467,16.677 9.466,16.671 9.462,16.667 9.461,16.661 9.633,15.33 9.744,14.052 9.708,13.326 11.086,12.318 11.979,10.74 11.979,8.964 11.979,7.988 11.707,7.029 11.191,6.19 11.19,6.189 11.19,6.188 11.19,6.187 11.134,6.096 11.069,6.01 11.007,5.922 11.04,5.755 11.059,5.583 11.059,5.406 11.059,3.929 9.857,2.727 8.38,2.727 7.589,2.727 6.884,3.079 6.393,3.627 6.057,3.61 5.722,3.62 5.392,3.656 4.9,3.092 4.185,2.727 3.38,2.727c-1.477,0 -2.679,1.202 -2.679,2.679 0,0.412 0.102,0.799 0.269,1.148 -0.383,0.747 -0.595,1.572 -0.595,2.41 0,2.311 1.507,4.29 3.635,5.107 -0.037,0.699 -0.147,2.27 -0.423,3.294 -0.031,0.114 -0.079,0.271 -0.137,0.461 -0.622,2.042 -2.515,8.257 1.727,10.643 1.614,0.908 3.06,1.248 4.317,1.248 2.665,0 4.492,-1.524 5.322,-2.401 1.476,-1.559 2.886,-1.854 6.491,0.82 1.877,1.393 3.514,1.753 4.861,1.068 2.223339,-1.713173 2.811314,-3.866512 3.399,-6.374 0.077,-0.846 0.056,-1.469 0.054,-1.537 zm-4.835,4.313c-0.054,0.305 -0.156,0.586 -0.242,0.629 -0.034,-0.007 -0.131,-0.022 -0.307,-0.157 -0.145,-0.111 -0.314,-0.478 -0.456,-0.908 0.221,0.121 0.432,0.25 0.675,0.355 0.115,0.039 0.219,0.051 0.33,0.081 zm-2.251,-1.238c-0.05,0.33 -0.158,0.648 -0.252,0.694 -0.022,10e-4 -0.125,-0.018 -0.307,-0.157 -0.217,-0.166 -0.488,-0.906 -0.639,-1.573 0.358,0.344 0.754,0.693 1.198,1.036 zM18.648,22.031C18.642,21.915 18.63,21.8 18.607,21.689c0.635,0.145 1.189,0.368 1.599,0.625 0.097,0.231 0.166,0.481 0.174,0.642 -0.03,0.049 -0.055,0.101 -0.067,0.158 -0.046,0.013 -0.128,0.026 -0.298,0.004 -0.278,-0.037 -0.901,-0.57 -1.367,-1.087 zm-1.127,-0.497c0.116,0.306 0.176,0.625 0.12,0.71 -0.019,0.014 -0.117,0.045 -0.345,0.016 -0.206,-0.027 -0.604,-0.332 -0.986,-0.695 0.41,-0.051 0.816,-0.056 1.211,-0.031 zm-4.535,1.535c0.209,0.22 0.379,0.47 0.358,0.598 -0.006,0.041 -0.088,0.138 -0.351,0.234 -0.144,0.055 -0.539,-0.063 -0.979,-0.259 0.349,-0.182 0.676,-0.38 0.972,-0.573 zm0.983,-0.664c0.359,-0.237 0.738,-0.418 1.126,-0.554 0.25,0.237 0.479,0.548 0.457,0.694 -0.006,0.042 -0.087,0.138 -0.351,0.235 -0.174,0.064 -0.694,-0.105 -1.232,-0.375 zm-3.381,1.794c-0.022,0.145 -0.061,0.29 -0.149,0.401 -0.133,0.166 -0.358,0.248 -0.69,0.251 H 9.747c-0.133,0 -0.306,-0.26 -0.45,-0.621 0.417,0.091 0.854,0.07 1.291,-0.031 zM8.522,16.122C8.336,16.014 8.082,15.838 7.747,15.538 7.919,15.423 8.252,15.284 8.627,15.16 8.598,15.465 8.562,15.789 8.522,16.122 ZM8.191,18.424C8.003,18.324 7.742,18.172 7.363,17.922 7.565,17.779 7.939,17.594 8.347,17.432 8.298,17.77 8.245,18.102 8.191,18.424 ZM7.741,20.581 7.04,20.178C7.254,20.063 7.576,19.929 7.931,19.802 7.866,20.107 7.802,20.37 7.741,20.581 ZM7.56,22.297C7.624,22.695 7.754,22.999 7.858,23.19 7.664,23.139 7.423,23.028 7.122,22.792 7.183,22.673 7.346,22.492 7.56,22.297 ZM8.87,4.141c0,0.152 -0.123,0.276 -0.276,0.276 -0.153,0 -0.275,-0.124 -0.275,-0.276 0,-0.152 0.123,-0.276 0.276,-0.276 0.153,0 0.275,0.124 0.275,0.276 zM8.135,3.752C7.944,3.959 7.821,4.23 7.821,4.535c0,0.642 0.52,1.162 1.162,1.162 0.457,0 0.842,-0.27 1.032,-0.653 0.026,0.117 0.042,0.238 0.042,0.362 0,0.926 -0.753,1.679 -1.679,1.679 -0.926,0 -1.679,-0.753 -1.679,-1.679 0,-0.843 0.626,-1.535 1.436,-1.654 zM5.059,5.406c0,0.926 -0.753,1.679 -1.679,1.679 -0.926,0 -1.679,-0.753 -1.679,-1.679 0,-0.037 0.009,-0.072 0.011,-0.109 0.21,0.3 0.541,0.508 0.935,0.508 0.642,0 1.162,-0.52 1.162,-1.162 0,-0.379 -0.193,-0.7 -0.474,-0.912 0.015,0 0.03,-0.005 0.045,-0.005 0.926,10e-4 1.679,0.754 1.679,1.68 zM3.198,4.141c0,0.152 -0.123,0.276 -0.276,0.276 -0.153,0 -0.275,-0.124 -0.275,-0.276 0,-0.152 0.123,-0.276 0.276,-0.276 0.153,0 0.275,0.124 0.275,0.276 zM1.375,8.964c0,-0.52 0.103,-1.035 0.288,-1.52 0.466,0.394 1.06,0.64 1.717,0.64 1.144,0 2.116,-0.725 2.499,-1.738 0.383,1.012 1.355,1.738 2.499,1.738 0.867,0 1.631,-0.421 2.121,-1.062 0.307,0.605 0.478,1.267 0.478,1.942 0,2.486 -2.153,4.51 -4.801,4.51 -2.648,0 -4.801,-2.023 -4.801,-4.51 zM25.717,28.313C24.732,28.811 23.45,28.481 21.904,27.334 18.831,25.053 16.451,24.135 14.091,26.629 12.776,28.02 9.928,29.994 5.668,27.599 2.494,25.813 3.429,21.333 4.407,18.12 4.47,17.916 4.519,17.75 4.553,17.628c0.276,-1.02 0.395,-2.457 0.444,-3.268 0.381,0.075 0.776,0.115 1.18,0.115 0.91,0 1.769,-0.206 2.536,-0.562 -0.002,0.058 -0.003,0.113 -0.006,0.175 -0.802,0.215 -1.848,0.612 -2.021,1.25 -0.079,0.295 0.021,0.601 0.274,0.837 0.219,0.203 0.415,0.364 0.598,0.501 -0.667,0.304 -1.243,0.698 -1.311,1.179 -0.02,0.144 -0.022,0.507 0.393,0.787 0.213,0.144 0.395,0.26 0.564,0.365 -1.285,0.521 -1.361,0.96 -1.381,1.126 -0.018,0.142 -0.011,0.496 0.427,0.746 l 0.854,0.489c-0.473,0.389 -0.971,0.914 -0.999,1.429 -0.018,0.278 0.095,0.532 0.316,0.713 0.675,0.556 1.231,0.721 1.653,0.721 0.059,0 0.104,-0.014 0.158,-0.02 0.207,0.707 0.641,1.64 1.513,1.64 h 0.013c0.8,-0.008 1.236,-0.345 1.462,-0.626 0.173,-0.216 0.268,-0.457 0.325,-0.692 0.424,0.195 0.93,0.374 1.372,0.374 0.151,0 0.294,-0.021 0.423,-0.068 0.732,-0.27 0.944,-0.704 0.993,-1.021 0.009,-0.061 0.003,-0.119 0.002,-0.179 0.266,0.086 0.538,0.147 0.789,0.147 0.15,0 0.294,-0.021 0.423,-0.069 0.542,-0.2 0.797,-0.489 0.914,-0.754 0.237,0.147 0.478,0.258 0.704,0.288 0.106,0.014 0.205,0.021 0.296,0.021 0.356,0 0.595,-0.101 0.767,-0.229 0.438,0.435 1.094,0.992 1.656,1.067 0.106,0.014 0.205,0.021 0.296,0.021 0.122,0 0.226,-0.015 0.323,-0.035 0.17,0.575 0.453,1.289 0.866,1.605 0.358,0.273 0.665,0.362 0.914,0.362 0.168,0 0.309,-0.041 0.421,-0.093 0.091,-0.043 0.172,-0.099 0.245,-0.164 0.168,0.428 0.39,0.846 0.68,1.068 0.358,0.273 0.665,0.362 0.913,0.362 0.168,0 0.309,-0.041 0.421,-0.093 0.317,-0.148 0.512,-0.448 0.639,-0.762 0.251,0.157 0.495,0.257 0.726,0.257 0.127,0 0.25,-0.024 0.37,-0.071 0.427,-0.17 0.706,-0.617 0.841,-1.314 0.022,-0.015 0.047,-0.022 0.068,-0.038 0.067,-0.051 0.133,-0.104 0.196,-0.159 -0.443,1.486 -1.107,2.761 -2.086,3.257 z"/>
        <path d="M8.66,9.925c0-0.276-0.224-0.5-0.5-0.5c-0.276,0-0.5,0.224-0.5,0.5c0,0.653-0.818,1.205-1.787,1.205 s-1.787-0.552-1.787-1.205c0-0.276-0.224-0.5-0.5-0.5s-0.5,0.224-0.5,0.5c0,1.216,1.25,2.205,2.787,2.205S8.66,11.141,8.66,9.925z"/>
        <path d="M13.06,25.89l-0.208,0.097c-2.661,1.258-4.708,1.436-6.086,0.527c-1.542-1.017-1.88-3.19-1.844-4.198c0.009-0.221-0.164-0.406-0.385-0.414c-0.242-0.029-0.406,0.164-0.414,0.385c-0.046,1.249,0.367,3.686,2.202,4.896c0.708,0.467,1.547,0.7,2.51,0.7c1.248,0,2.706-0.392,4.362-1.174l0.185-0.086c0.202-0.09,0.294-0.325,0.205-0.527C13.498,25.892,13.261,25.805,13.06,25.89z"/>
        <path d="M9.547,2.292C9.64,2.369,9.752,2.406,9.864,2.406c0.144,0,0.287-0.063,0.386-0.183c0.176-0.213,0.146-0.528-0.068-0.703 L8.817,0.397C8.606,0.221,8.29,0.251,8.114,0.465C7.938,0.678,7.969,0.994,8.183,1.168L9.547,2.292z"/>
        <path d="M1.886,2.227c0.086,0,0.173-0.022,0.253-0.068l1.523-0.893C3.9,1.126,3.98,0.82,3.841,0.582C3.7,0.343,3.395,0.265,3.156,0.403L1.633,1.295C1.394,1.435,1.314,1.742,1.454,1.98C1.548,2.138,1.715,2.227,1.886,2.227z"/>
    </g>
    <!-- <text x="0" y="19" style="font-size: 20px; font-family: 'Fredoka One'" fill="#008000">pdoc</text> -->
    <g fill="#008000" transform="translate(-0.5,0)">
        <path d="M 0.8,21.86 V 10.18 Q 0.8,9.72 0.82,9.5 0.86,9.28 1,9 1.28,8.46 2.34,8.46 3.4,8.46 3.76,8.74 4.14,9 4.2,9.52 4.96,8.48 6.58,8.48 q 1.64,0 3.1,1.54 1.46,1.54 1.46,3.58 0,2.04 -1.46,3.58 -1.44,1.54 -3.08,1.54 -1.64,0 -2.38,-0.92 v 4.04 q 0,0.46 -0.04,0.68 -0.02,0.22 -0.18,0.5 -0.14,0.3 -0.5,0.42 -0.36,0.12 -0.98,0.12 -0.62,0 -1,-0.12 Q 1.16,23.32 1,23.04 0.86,22.76 0.82,22.54 0.8,22.32 0.8,21.86 Z m 3.96,-9.42 q -0.46,0.54 -0.46,1.18 0,0.64 0.46,1.18 0.48,0.52 1.2,0.52 0.74,0 1.24,-0.52 0.52,-0.52 0.52,-1.18 0,-0.66 -0.48,-1.18 -0.48,-0.54 -1.26,-0.54 -0.76,0 -1.22,0.54 z"/>
        <path d="m 19.500625,4.08 q 0.16,-0.3 0.54,-0.42 0.38,-0.12 1,-0.12 0.64,0 1.02,0.12 0.38,0.12 0.52,0.42 0.16,0.3 0.18,0.54 0.04,0.22 0.04,0.68 v 11.94 q 0,0.46 -0.04,0.7 -0.02,0.22 -0.18,0.5 -0.3,0.54 -1.7,0.54 -1.38,0 -1.54,-0.98 -0.84,0.96 -2.34,0.96 -1.8,0 -3.28,-1.56 -1.48,-1.58 -1.48,-3.66 0,-2.1 1.48,-3.68 1.5,-1.58 3.28,-1.58 1.48,0 2.3,1 v -4.2 q 0,-0.46 0.02,-0.68 0.04,-0.24 0.18,-0.52 z m -3.24,10.86 q 0.52,0.54 1.26,0.54 0.74,0 1.22,-0.54 0.5,-0.54 0.5,-1.18 0,-0.66 -0.48,-1.22 -0.46,-0.56 -1.26,-0.56 -0.8,0 -1.28,0.56 -0.48,0.54 -0.48,1.2 0,0.66 0.52,1.2 z"/>
        <path d="m 24.09375,13.74 q 0,-2.4 1.68,-3.96 1.68,-1.56 3.84,-1.56 2.16,0 3.82,1.56 1.66,1.54 1.66,3.94 0,1.66 -0.86,2.96 -0.86,1.28 -2.1,1.9 -1.22,0.6 -2.54,0.6 -1.32,0 -2.56,-0.64 -1.24,-0.66 -2.1,-1.92 -0.84,-1.28 -0.84,-2.88 z m 4.18,1.44 q 0.64,0.48 1.3,0.48 0.66,0 1.32,-0.5 0.66,-0.5 0.66,-1.48 0,-0.98 -0.62,-1.46 -0.62,-0.48 -1.34,-0.48 -0.72,0 -1.34,0.5 -0.62,0.5 -0.62,1.48 0,0.96 0.64,1.46 z"/>
        <path d="m 39.685938,13.74 q 0,0.84 0.559999,1.32 0.56,0.46 1.180001,0.46 0.64,0 1.18,-0.36 0.559999,-0.38 0.9,-0.38 0.599999,0 1.46,1.06 0.46,0.58 0.46,1.04 0,0.76 -1.1,1.42 -1.14,0.8 -2.800001,0.8 -1.86,0 -3.58,-1.34 -0.82,-0.64 -1.339999,-1.7 -0.520001,-1.08 -0.520001,-2.36 0,-1.3 0.520001,-2.34 0.519999,-1.06 1.339999,-1.7 1.660001,-1.32 3.54,-1.32 0.76,0 1.480001,0.22 0.72,0.2 1.059999,0.4 l 0.32,0.2 q 0.360001,0.24 0.56,0.38 0.520001,0.4 0.520001,0.92 0,0.5 -0.42,1.14 -0.72,1.1 -1.380001,1.1 -0.38,0 -1.08,-0.44 -0.359999,-0.34 -1.039999,-0.34 -0.660001,0 -1.240001,0.48 -0.579999,0.48 -0.579999,1.34 z"/>
    </g>
</svg>