<svg xmlns="http://www.w3.org/2000/svg" xmlns:xlink="http://www.w3.org/1999/xlink" width="1055" height="240"><path d="M134 120c0 7.732-6.268 14-14 14s-14-6.268-14-14 6.268-14 14-14 14 6.268 14 14z" fill="#f15a29"/><g fill="none"><path d="M139.5 120c0 10.77-8.73 19.5-19.5 19.5s-19.5-8.73-19.5-19.5 8.73-19.5 19.5-19.5 19.5 8.73 19.5 19.5z" stroke="#f7941e" stroke-width="4"/><g stroke="#000" stroke-width="10"><path d="M150 120c0 16.569-13.431 30-30 30s-30-13.431-30-30 13.431-30 30-30 30 13.431 30 30z"/><path d="M187 48c-33.727-29.162-82.686-32.473-120.033-8.117S12.911 110.378 26 153h38a65 65 0 0 0 111 4M20 120h70"/></g></g><path d="M184 149a6 6 0 1 1-12 0 6 6 0 1 1 12 0z" fill="#f7941e"/><use xlink:href="#B" fill="none" stroke="#000" stroke-width="3.2"/><path d="M199 55a6 6 0 1 1-12 0 6 6 0 1 1 12 0z" fill="#f7941e"/><g fill="none" stroke="#000"><use xlink:href="#B" x="15" y="-94" stroke-width="3.2"/><path d="M53 192c33.727 29.162 82.686 32.473 120.033 8.117S227.089 129.622 214 87h-38a65 65 0 0 0-111-4m155 37h-70" stroke-width="10"/></g><path d="M68 91a6 6 0 1 1-12 0 6 6 0 1 1 12 0z" fill="#f7941e"/><use xlink:href="#B" x="-116" y="-58" fill="none" stroke="#000" stroke-width="3.2"/><path d="M53 185a6 6 0 1 1-12 0 6 6 0 1 1 12 0z" fill="#f7941e"/><use xlink:href="#B" x="-131" y="36" fill="none" stroke="#000" stroke-width="3.2"/><use xlink:href="#C"/><path d="M442 92h-29.12v10.08h18.4V180H442zm0-27.52h-10.72v10.08H442zm61.92 105.6h-16.48c-5.92 0-7.36-2.08-7.36-7.2v-60.8h23.84V92h-23.84V59.04H469.2V92h-14.56v10.08h14.56v60.96c0 13.6 4.8 16.96 17.6 16.96h17.12z"/><use xlink:href="#C" x="236"/><path d="M713.36 180c12.8 0 17.6-3.36 17.6-16.96v-54.08c0-13.6-4.8-16.96-17.6-16.96h-38.88c-12.8 0-17.6 3.36-17.6 16.96V212h10.88v-32zm6.88-17.12c0 5.12-1.44 7.2-7.36 7.2h-45.12v-60.8c0-5.12 1.44-7.2 7.36-7.2h37.76c5.92 0 7.36 2.08 7.36 7.2zm40.48-53.6c0-5.12 1.44-7.2 7.36-7.2h35.36V92h-36c-12.8 0-17.6 3.36-17.6 16.96V180h10.88zM870.64 180c12.8 0 17.6-3.36 17.6-16.96v-54.08c0-13.6-4.8-16.96-17.6-16.96h-38.88c-12.8 0-17.6 3.36-17.6 16.96v54.08c0 13.6 4.8 16.96 17.6 16.96zm6.88-17.12c0 5.12-1.44 7.2-7.36 7.2H832.4c-5.92 0-7.36-2.08-7.36-7.2v-53.6c0-5.12 1.44-7.2 7.36-7.2h37.76c5.92 0 7.36 2.08 7.36 7.2zm60.16-26.56L964.72 92H953.2l-21.44 34.72L910.8 92h-11.52L926 136.32 899.44 180h11.52l20.8-33.92 20.8 33.92h11.52zM1040.9 92h-10.88l-24.8 72.64L979.62 92H968.1l32 88-10.72 32h9.92z"/><defs ><path id="B" d="M188 149c0 5.523-4.477 10-10 10s-10-4.477-10-10 4.477-10 10-10 10 4.477 10 10z"/><path id="C" d="M401.84 108.96c0-13.6-4.8-16.96-17.6-16.96h-29.76c-7.04 0-11.04 1.28-13.6 6.56-2.56-5.28-6.56-6.56-13.6-6.56h-30.24c-12.8 0-17.6 3.36-17.6 16.96V180h10.88v-70.72c0-5.12 1.44-7.2 7.36-7.2h30.56c5.92 0 7.36 2.08 7.36 7.2V180h10.72v-70.72c0-5.12 1.44-7.2 7.36-7.2h30.08c5.92 0 7.36 2.08 7.36 7.2V180h10.72z"/></defs></svg>
