<svg xmlns="http://www.w3.org/2000/svg" width="64" height="64" viewBox="44.5 2.5 15 15"><path d="M28.379 21.293c.011-.273.214-.475.511-.481a.5.5 0 0 1 .489.503l.044 1.393c.097.551.695 1.215 1.566 1.704.577.428 1.306.486 2.193.182 1.426-.617 2.467-1.654 3.304-2.487l.173-.172a3.43 3.43 0 0 1 .365-.306.49.49 0 0 1 .286-.196c1.718-1.06 4.931-1.47 7.353.191l.219.15c1.707 1.187 3.413 2.131 4.328 1.03.02-.027.49-.685.141-1.763-.233-.721-.546-2.408-.772-4.076-.042-.09-.067-.187-.046-.288-.166-1.347-.277-2.625-.241-3.351-1.378-1.008-2.271-2.586-2.271-4.362 0-.976.272-1.935.788-2.774.057-.094.122-.18.184-.268-.033-.167-.052-.339-.052-.516 0-1.477 1.202-2.679 2.679-2.679.791 0 1.496.352 1.987.9a6.3 6.3 0 0 1 1.001.029c.492-.564 1.207-.929 2.012-.929 1.477 0 2.679 1.202 2.679 2.679a2.65 2.65 0 0 1-.269 1.148c.383.747.595 1.572.595 2.41 0 2.311-1.507 4.29-3.635 5.107.037.699.147 2.27.423 3.294l.137.461c.622 2.042 2.515 8.257-1.727 10.643-1.614.908-3.06 1.248-4.317 1.248-2.665 0-4.492-1.524-5.322-2.401-1.476-1.559-2.886-1.854-6.491.82-1.877 1.393-3.514 1.753-4.861 1.068-2.223-1.713-2.811-3.867-3.399-6.374-.077-.846-.056-1.469-.054-1.537zm4.835 4.313c.054.305.156.586.242.629.034-.007.131-.022.307-.157.145-.111.314-.478.456-.908-.221.121-.432.25-.675.355-.115.039-.219.051-.33.081zm2.251-1.238c.05.33.158.648.252.694.022.001.125-.018.307-.157.217-.166.488-.906.639-1.573-.358.344-.754.693-1.198 1.036zm3.887-2.337c.006-.116.018-.231.041-.342-.635.145-1.189.368-1.599.625-.097.231-.166.481-.174.642.03.049.055.101.067.158.046.013.128.026.298.004.278-.037.901-.57 1.367-1.087zm1.127-.497c-.116.306-.176.625-.12.71.019.014.117.045.345.016.206-.027.604-.332.986-.695-.41-.051-.816-.056-1.211-.031zm4.535 1.535c-.209.22-.379.47-.358.598.006.041.088.138.351.234.144.055.539-.063.979-.259a11.66 11.66 0 0 1-.972-.573zm-.983-.664c-.359-.237-.738-.418-1.126-.554-.25.237-.479.548-.457.694.006.042.087.138.351.235.174.064.694-.105 1.232-.375zm3.381 1.794c.022.145.061.29.149.401.133.166.358.248.69.251h.002c.133 0 .306-.26.45-.621-.417.091-.854.07-1.291-.031zm2.066-8.077a4.78 4.78 0 0 0 .775-.584c-.172-.115-.505-.254-.88-.378l.105.962zm.331 2.302a10.32 10.32 0 0 0 .828-.502c-.202-.143-.576-.328-.984-.49l.156.992zm.45 2.157l.701-.403c-.214-.115-.536-.249-.891-.376a11.57 11.57 0 0 0 .19.779zm.181 1.716c-.064.398-.194.702-.298.893.194-.051.435-.162.736-.398-.061-.119-.224-.3-.438-.495zM49.13 4.141c0 .152.123.276.276.276s.275-.124.275-.276-.123-.276-.276-.276-.275.124-.275.276zm.735-.389a1.15 1.15 0 0 1 .314.783 1.16 1.16 0 0 1-1.162 1.162c-.457 0-.842-.27-1.032-.653-.026.117-.042.238-.042.362a1.68 1.68 0 0 0 1.679 1.679 1.68 1.68 0 0 0 1.679-1.679c0-.843-.626-1.535-1.436-1.654zm3.076 1.654a1.68 1.68 0 0 0 1.679 1.679 1.68 1.68 0 0 0 1.679-1.679c0-.037-.009-.072-.011-.109-.21.3-.541.508-.935.508a1.16 1.16 0 0 1-1.162-1.162 1.14 1.14 0 0 1 .474-.912c-.015 0-.03-.005-.045-.005-.926.001-1.679.754-1.679 1.68zm1.861-1.265c0 .152.123.276.276.276s.275-.124.275-.276-.123-.276-.276-.276-.275.124-.275.276zm1.823 4.823c0-.52-.103-1.035-.288-1.52-.466.394-1.06.64-1.717.64-1.144 0-2.116-.725-2.499-1.738-.383 1.012-1.355 1.738-2.499 1.738-.867 0-1.631-.421-2.121-1.062-.307.605-.478 1.267-.478 1.942 0 2.486 2.153 4.51 4.801 4.51s4.801-2.023 4.801-4.51zM32.283 28.313c.985.498 2.267.168 3.813-.979 3.073-2.281 5.453-3.199 7.813-.705 1.315 1.391 4.163 3.365 8.423.97 3.174-1.786 2.239-6.266 1.261-9.479l-.146-.492c-.276-1.02-.395-2.457-.444-3.268a6.11 6.11 0 0 1-1.18.115 6.01 6.01 0 0 1-2.536-.562l.006.175c.802.215 1.848.612 2.021 1.25.079.295-.021.601-.274.837-.219.203-.415.364-.598.501.667.304 1.243.698 1.311 1.179.02.144.022.507-.393.787-.213.144-.395.26-.564.365 1.285.521 1.361.96 1.381 1.126.018.142.011.496-.427.746l-.854.489c.473.389.971.914.999 1.429.018.278-.095.532-.316.713-.675.556-1.231.721-1.653.721-.059 0-.104-.014-.158-.02-.207.707-.641 1.64-1.513 1.64h-.013c-.8-.008-1.236-.345-1.462-.626-.173-.216-.268-.457-.325-.692-.424.195-.93.374-1.372.374-.151 0-.294-.021-.423-.068-.732-.27-.944-.704-.993-1.021-.009-.061-.003-.119-.002-.179-.266.086-.538.147-.789.147-.15 0-.294-.021-.423-.069-.542-.2-.797-.489-.914-.754-.237.147-.478.258-.704.288-.106.014-.205.021-.296.021-.356 0-.595-.101-.767-.229-.438.435-1.094.992-1.656 1.067-.106.014-.205.021-.296.021a1.56 1.56 0 0 1-.323-.035c-.17.575-.453 1.289-.866 1.605-.358.273-.665.362-.914.362a.99.99 0 0 1-.421-.093 1.03 1.03 0 0 1-.245-.164c-.168.428-.39.846-.68 1.068-.358.273-.665.362-.913.362a.99.99 0 0 1-.421-.093c-.317-.148-.512-.448-.639-.762-.251.157-.495.257-.726.257-.127 0-.25-.024-.37-.071-.427-.17-.706-.617-.841-1.314-.022-.015-.047-.022-.068-.038-.067-.051-.133-.104-.196-.159.443 1.486 1.107 2.761 2.086 3.257zM49.34 9.925a.5.5 0 1 1 1 0c0 .653.818 1.205 1.787 1.205s1.787-.552 1.787-1.205a.5.5 0 1 1 1 0c0 1.216-1.25 2.205-2.787 2.205s-2.787-.989-2.787-2.205zm-4.4 15.965l.208.097c2.661 1.258 4.708 1.436 6.086.527 1.542-1.017 1.88-3.19 1.844-4.198a.4.4 0 0 1 .385-.414c.242-.029.406.164.414.385.046 1.249-.367 3.686-2.202 4.896-.708.467-1.547.7-2.51.7-1.248 0-2.706-.392-4.362-1.174l-.185-.086a.4.4 0 0 1-.205-.527c.089-.204.326-.291.527-.206zm3.513-23.598c-.093.077-.205.114-.317.114a.5.5 0 0 1-.318-.886L49.183.397a.5.5 0 0 1 .703.068.5.5 0 0 1-.069.703l-1.364 1.124zm7.661-.065c-.086 0-.173-.022-.253-.068l-1.523-.893a.5.5 0 1 1 .506-.863l1.523.892a.5.5 0 0 1 .179.685c-.094.158-.261.247-.432.247z" fill="#3bb300"/></svg>