<svg xmlns="http://www.w3.org/2000/svg" width="192" height="192"><path d="M67.807 23.244c-18.032 5.523-24.273 9.411-33.193 16.169S19.407 51.125 9.34 69.76C3.27 80.996.827 99.271 1 111.679c.114 8.169 2.188 13.559 2.188 13.559S42.326 247.27 20.435 278.105c-10.488 14.773 84.422 27.007 80.047 10.45-10.397-39.348-27.595-97.409-31.908-113.667-3.047-11.484 8.16-21.995 16.295-27.343 3.383-2.224 8.051-3.786 8.051-3.786l51.924-15.595s23.809-8.579 34.062-26.567 12.689-37.584 12.689-37.584.495-16.588-5.939-23.14-2.732-5.866-18.646-12.498-49.122-10.053-49.122-10.053-32.049-.602-50.081 4.921z" fill="#20ad6c"/><g transform="rotate(343.993)"><ellipse cx="52.276" cy="94.089" fill="#fff" rx="27.852" ry="27.823"/><ellipse cx="52.538" cy="94.689" rx="18.688" ry="18.331" fill="#105a48"/><ellipse cx="63.333" cy="86.3" fill="#fff" rx="7.596" ry="7.588"/></g><g fill="#105a48"><ellipse cx="94.154" cy="135.734" rx="4.505" ry="5.257" transform="rotate(325.015)"/><ellipse cx="167.86" cy="56.951" rx="4.484" ry="5.231" transform="rotate(358.779)"/></g><path d="M188.962 77.458l-34.248 10.171c-6.878 1.973-9.974 3.388-14.888 3.66s-10.868-1.869-10.868-1.869l-2.342 8.633c2.197.944 9.969 2.39 14.756 2.592s15.582-2.46 15.582-2.46l27.471-7.534c1.951-4.709 3.432-9.238 4.537-13.193z" fill="#e78361"/></svg>