<?xml version="1.0" encoding="UTF-8" standalone="no"?>
<!-- Created with Inkscape (http://www.inkscape.org/) -->

<svg
   width="150"
   height="80"
   viewBox="0 0 150 79.999999"
   version="1.1"
   id="svg1"
   xml:space="preserve"
   inkscape:version="1.4.2 (f4327f4, 2025-05-13)"
   sodipodi:docname="logo.orig.svg"
   inkscape:export-filename="logo.png"
   inkscape:export-xdpi="192"
   inkscape:export-ydpi="192"
   xmlns:inkscape="http://www.inkscape.org/namespaces/inkscape"
   xmlns:sodipodi="http://sodipodi.sourceforge.net/DTD/sodipodi-0.dtd"
   xmlns="http://www.w3.org/2000/svg"
   xmlns:svg="http://www.w3.org/2000/svg"><sodipodi:namedview
     id="namedview1"
     pagecolor="#ffffff"
     bordercolor="#000000"
     borderopacity="0.25"
     inkscape:showpageshadow="2"
     inkscape:pageopacity="0.0"
     inkscape:pagecheckerboard="0"
     inkscape:deskcolor="#d1d1d1"
     inkscape:document-units="px"
     inkscape:zoom="10.026553"
     inkscape:cx="71.659722"
     inkscape:cy="37.151352"
     inkscape:window-width="3840"
     inkscape:window-height="2054"
     inkscape:window-x="-11"
     inkscape:window-y="-11"
     inkscape:window-maximized="1"
     inkscape:current-layer="svg1" /><defs
     id="defs1" /><path
     style="opacity:1;fill:#198754;fill-opacity:1;stroke-width:0.325428"
     d="m 132.31631,48.885824 c 0.27555,-4.67938 2.34218,-6.697936 4.4088,-7.982469 2.06663,-1.284537 4.26962,-1.164508 6.75098,-1.055151 1.5857,0.06988 3.04404,0.156237 4.22201,-0.481971 1.14193,-0.618686 2.02592,-1.932104 2.16156,-3.738647 0.26846,-3.575656 -1.92885,-5.367525 -5.00582,-5.55103 -3.07698,-0.183506 -7.59857,0.523756 -10.51683,1.60567 -4.45472,1.651548 -8.58797,6.606179 -9.55239,8.991747 -0.96443,2.385564 -2.34218,6.193295 -1.74515,10.872676 0.59702,4.679377 2.66365,9.221129 5.8784,11.790196 3.21474,2.569074 5.87839,3.807735 10.10349,4.312375 4.2251,0.504637 3.44438,0.229379 6.0621,0.229379 2.61773,0 5.00582,-2.202062 4.91397,-4.908761 -0.0918,-2.706696 -2.29624,-5.000514 -4.50064,-4.862885 -2.2044,0.137632 -3.07698,0.504641 -5.28137,0.229382 -2.2044,-0.275256 -7.7154,-2.064433 -7.89911,-9.450511 z"
     id="path10"
     sodipodi:nodetypes="cssssssssssssssc"
     inkscape:label="c" /><ellipse
     style="opacity:1;fill:none;stroke:#198754;stroke-width:9.35356;stroke-dasharray:none;stroke-opacity:1;fill-opacity:1"
     id="path11"
     cx="101.50364"
     cy="48.943214"
     rx="14.20822"
     ry="14.208219"
     inkscape:label="o" /><path
     id="path2"
     style="fill:#198754;fill-opacity:1;stroke-width:0.325428"
     inkscape:label="d"
     d="M 87.80957,0.00170713 C 84.172497,0.06658585 82.808537,0.455572 80.795159,1.23412 78.781777,2.0126646 77.352607,2.5968952 74.494908,5.5164411 72.77174,7.2768997 71.34674,10.535378 70.718922,12.845196 c -0.413354,1.520792 -0.315567,2.630346 -0.315567,2.630346 0,0 -0.259628,28.838129 -0.194678,34.612346 0.06495,5.774216 -6.754522,8.304733 -9.612225,8.369611 -2.857699,0.06488 -9.677644,-1.038263 -9.742591,-9.407636 -0.06495,-8.369367 7.128114,-9.521009 8.362119,-9.521009 1.412615,-0.12976 2.525709,-0.0212 3.718183,-0.01623 2.071135,0.0087 4.156585,-0.778371 4.091635,-4.6711 -0.06495,-3.89273 -4.1565,-4.7359 -4.1565,-4.7359 -6.299932,-0.843423 -11.430372,2.205639 -11.430372,2.205639 0,0 -10.521554,5.838846 -10.06692,17.322399 0.454637,11.483555 10.196452,18.555529 19.938603,18.490651 9.742164,-0.06488 18.315531,-7.006827 18.445428,-17.192804 0.100102,-7.849702 0.06478,-19.528395 0.129727,-22.772338 0.04587,-2.291256 2.682832,-3.644046 4.475691,-4.202896 0.745451,-0.232366 1.694152,-0.273814 1.694152,-0.273814 L 96.512404,23.55287 c 0,-4e-6 4.870866,-0.32428 7.728566,-3.114068 2.8577,-2.789789 4.35174,-6.293568 4.35174,-6.293568 0,0 0.97405,-3.049213 0.12973,-4.6063053 -0.84432,-1.5570928 -0.1945,-1.2329692 -2.79241,-3.3090949 -2.59791,-2.0761223 -8.5731,-4.4767098 -8.5731,-4.4767098 0,0 -5.910287,-1.81630511 -9.54736,-1.75142638 z"
     sodipodi:nodetypes="sssscssscssccsssssccscsscs" /><path
     style="fill:#198754;fill-opacity:1;stroke-width:0.325428"
     d="m 0,47.168585 0.06494795,28.416932 c 0,0 -0.06494795,4.541518 4.41644585,4.411758 C 8.962788,79.86752 9.5530667,76.131711 9.5300697,75.845031 L 9.417422,47.363222 c 0,0 1.623694,-7.655702 9.937004,-7.720582 8.31331,-0.06488 10.001951,6.942036 10.001951,8.499129 0,1.557088 -0.909012,10.51037 -9.092683,10.51037 -0.947611,0 -2.989503,-0.566709 -4.145328,-0.271638 -3.918917,1.000455 -3.193766,4.553642 -3.193766,4.553642 0,0 0.06495,5.06055 7.404042,4.995672 7.339094,-0.06488 18.575055,-6.033734 18.575055,-19.074379 0,-13.040647 -11.950385,-18.814863 -19.354428,-18.944621 C 12.145227,29.781058 1.2340072,35.295762 0,47.168585 Z"
     id="path1"
     sodipodi:nodetypes="ccsccsssscsssc"
     inkscape:label="p" /><g
     id="g7"
     inkscape:label="eye"
     transform="matrix(0.32560097,0,0,0.32525556,-10.32669,-45.802786)"><circle
       style="display:inline;opacity:1;fill:#ffffff;fill-opacity:1;stroke-width:0.999634"
       id="path3"
       cx="297.55374"
       cy="172.28635"
       r="16.5" /><ellipse
       style="opacity:1;fill:#105a48;fill-opacity:1"
       id="path4"
       cx="297.70947"
       cy="172.64157"
       rx="11.070604"
       ry="10.871134" /><circle
       style="opacity:1;fill:#ffffff;fill-opacity:1;stroke-width:1.0145"
       id="path5"
       cx="304.10446"
       cy="167.66675"
       r="4.5" /></g><path
     style="opacity:1;fill:#d36d49;fill-opacity:1;stroke-width:0.325428"
     d="m 94.661329,17.032367 0.893031,-1.475993 c 0,0 0.990453,0.713666 1.915957,0.924523 0.925506,0.210856 1.574983,0.113536 2.955123,0.113536 1.38014,0 13.28181,-0.129757 14.56453,-0.162195 1.28272,-0.03243 3.08502,-0.762327 3.02007,-3.292601 -0.065,-2.530276 -0.37345,-3.5034571 -0.37345,-3.5034571 l 1.28272,-0.4865923 c 0,0 0.51958,0.5028127 0.87679,1.5733134 0.35722,1.0705 0.30851,1.995023 0.29227,2.660031 -0.0162,0.665007 -0.22732,1.540872 -0.22732,1.540872 0,0 1.56373,-0.308143 2.35934,-1.038028 0.79561,-0.729887 0.8231,-0.77858 1.48881,-1.508466 0.66572,-0.729887 0.81185,-0.859644 0.81185,-0.859644 0,0 0.55206,-0.129758 0.87679,0.259514 0.32474,0.389273 0.34098,0.956964 0.0649,1.459774 -0.27602,0.502812 -1.6724,2.20588 -3.24738,3.065527 -1.57498,0.859644 -2.76028,1.427332 -3.92934,1.767947 -1.16906,0.340613 -3.84815,0.729885 -7.06307,0.713668 -3.21491,-0.01624 -10.9437,-0.11354 -10.9437,-0.11354 0,0 -2.143267,-0.0811 -3.020063,-0.373051 -0.876795,-0.291957 -2.240696,-0.973185 -2.597908,-1.265138 z"
     id="path7"
     inkscape:label="tongue"
     sodipodi:nodetypes="ccssssccsscsscssssscsc" /><g
     id="g12"
     inkscape:label="nostrils"
     style="fill:#105a48;fill-opacity:1"><ellipse
       style="opacity:1;fill:#105a48;fill-opacity:1;stroke-width:1.26443"
       id="path6"
       cx="93.051949"
       cy="43.566784"
       rx="0.86942708"
       ry="1.0143316"
       transform="rotate(-18.978098)" /><ellipse
       style="opacity:1;fill:#105a48;fill-opacity:1;stroke-width:1.25748"
       id="path6-1"
       cx="104.30038"
       cy="-16.184366"
       rx="0.86464578"
       ry="1.0087534"
       transform="rotate(14.785879)" /></g></svg>
