<svg xmlns="http://www.w3.org/2000/svg" role="img" aria-label="pdoc logo" width="300" height="160" viewBox="0 0 150 80"><title>pdoc</title><path d="M132.316 48.886c.276-4.679 2.342-6.698 4.409-7.982s4.27-1.165 6.751-1.055c1.586.07 3.044.156 4.222-.482 1.142-.619 2.026-1.932 2.162-3.739.268-3.576-1.929-5.368-5.006-5.551s-7.599.524-10.517 1.606c-4.455 1.652-8.588 6.606-9.552 8.992s-2.342 6.193-1.745 10.873 2.664 9.221 5.878 11.79 5.878 3.808 10.103 4.312 3.444.229 6.062.229 5.006-2.202 4.914-4.909-2.296-5.001-4.501-4.863-3.077.505-5.281.229-7.715-2.064-7.899-9.451z" fill="#198754"/><circle cx="101.504" cy="48.943" r="14.208" fill="none" stroke="#198754" stroke-width="9.354"/><path d="M87.81.002c-3.637.065-5.001.454-7.014 1.232s-3.443 1.363-6.3 4.282c-1.723 1.76-3.148 5.019-3.776 7.329-.413 1.521-.316 2.63-.316 2.63l-.195 34.612c.065 5.774-6.755 8.305-9.612 8.37s-9.678-1.038-9.743-9.408 7.128-9.521 8.362-9.521c1.413-.13 2.526-.021 3.718-.016 2.071.009 4.157-.778 4.092-4.671s-4.157-4.736-4.157-4.736c-6.3-.843-11.43 2.206-11.43 2.206S40.917 38.15 41.372 49.634 51.568 68.19 61.311 68.125s18.316-7.007 18.445-17.193l.13-22.772c.046-2.291 2.683-3.644 4.476-4.203.745-.232 1.694-.274 1.694-.274l10.457-.13s4.871-.324 7.729-3.114 4.352-6.294 4.352-6.294.974-3.049.13-4.606-.195-1.233-2.792-3.309-8.573-4.477-8.573-4.477S91.447-.063 87.81.002zM0 47.169l.065 28.417S0 80.127 4.481 79.997s5.072-3.866 5.049-4.152l-.113-28.482s1.624-7.656 9.937-7.721 10.002 6.942 10.002 8.499-.909 10.51-9.093 10.51c-.948 0-2.99-.567-4.145-.272-3.919 1-3.194 4.554-3.194 4.554s.065 5.061 7.404 4.996 18.575-6.034 18.575-19.074S26.953 30.04 19.549 29.91 1.234 35.296 0 47.169z" fill="#198754"/><g transform="matrix(.325601 0 0 .325256 -10.32669 -45.802786)"><circle cx="297.554" cy="172.286" r="16.5" fill="#fff"/><ellipse cx="297.709" cy="172.642" rx="11.071" ry="10.871" fill="#105a48"/><circle cx="304.104" cy="167.667" r="4.5" fill="#fff"/></g><path d="M94.661 17.032l.893-1.476s.99.714 1.916.925 1.575.114 2.955.114l14.565-.162c1.283-.032 3.085-.762 3.02-3.293s-.373-3.503-.373-3.503l1.283-.487s.52.503.877 1.573.309 1.995.292 2.66-.227 1.541-.227 1.541 1.564-.308 2.359-1.038.823-.779 1.489-1.508.812-.86.812-.86.552-.13.877.26.341.957.065 1.46-1.672 2.206-3.247 3.066-2.76 1.427-3.929 1.768-3.848.73-7.063.714l-10.944-.114s-2.143-.081-3.02-.373-2.241-.973-2.598-1.265z" fill="#d36d49"/><g fill="#105a48"><ellipse cx="93.052" cy="43.567" rx=".869" ry="1.014" transform="rotate(341.022)"/><ellipse cx="104.3" cy="-16.184" rx=".865" ry="1.009" transform="rotate(14.786)"/></g></svg>